<svg id="visual" viewBox="0 0 960 540" width="960" height="540" xmlns="http://www.w3.org/2000/svg" xmlns:xlink="http://www.w3.org/1999/xlink" version="1.1"><rect x="0" y="0" width="960" height="540" fill="#000e37"></rect><defs><linearGradient id="grad1_0" x1="43.8%" y1="100%" x2="100%" y2="0%"><stop offset="14.444444444444446%" stop-color="#00bcff" stop-opacity="1"></stop><stop offset="85.55555555555554%" stop-color="#00bcff" stop-opacity="1"></stop></linearGradient></defs><defs><linearGradient id="grad1_1" x1="43.8%" y1="100%" x2="100%" y2="0%"><stop offset="14.444444444444446%" stop-color="#00bcff" stop-opacity="1"></stop><stop offset="85.55555555555554%" stop-color="#000e37" stop-opacity="1"></stop></linearGradient></defs><defs><linearGradient id="grad2_0" x1="0%" y1="100%" x2="56.3%" y2="0%"><stop offset="14.444444444444446%" stop-color="#00bcff" stop-opacity="1"></stop><stop offset="85.55555555555554%" stop-color="#00bcff" stop-opacity="1"></stop></linearGradient></defs><defs><linearGradient id="grad2_1" x1="0%" y1="100%" x2="56.3%" y2="0%"><stop offset="14.444444444444446%" stop-color="#000e37" stop-opacity="1"></stop><stop offset="85.55555555555554%" stop-color="#00bcff" stop-opacity="1"></stop></linearGradient></defs><g transform="translate(960, 540)"><path d="M-540 0C-504.3 -63.8 -468.6 -127.6 -433.3 -179.5C-398 -231.4 -363 -271.5 -328.8 -328.8C-294.6 -386.2 -261.3 -460.8 -206.6 -498.9C-152 -537 -76 -538.5 0 -540L0 0Z" fill="#125e99"></path><path d="M-270 0C-252.2 -31.9 -234.3 -63.8 -216.6 -89.7C-199 -115.7 -181.5 -135.7 -164.4 -164.4C-147.3 -193.1 -130.7 -230.4 -103.3 -249.4C-76 -268.5 -38 -269.2 0 -270L0 0Z" fill="#00bcff"></path></g><g transform="translate(0, 0)"><path d="M540 0C531.1 68.3 522.3 136.5 498.9 206.6C475.5 276.8 437.6 348.8 378.3 378.3C319 407.8 238.4 394.9 171.8 414.8C105.2 434.7 52.6 487.3 0 540L0 0Z" fill="#125e99"></path><path d="M270 0C265.6 34.1 261.1 68.3 249.4 103.3C237.8 138.4 218.8 174.4 189.2 189.2C159.5 203.9 119.2 197.5 85.9 207.4C52.6 217.3 26.3 243.7 0 270L0 0Z" fill="#00bcff"></path></g></svg>