<svg id="visual" viewBox="0 0 1000 300" width="1000" height="300" xmlns="http://www.w3.org/2000/svg" xmlns:xlink="http://www.w3.org/1999/xlink" version="1.1"><rect x="0" y="0" width="1000" height="300" fill="#000e37"></rect><defs><linearGradient id="grad1_0" x1="70%" y1="100%" x2="100%" y2="0%"><stop offset="-16.66666666666667%" stop-color="#0149ff" stop-opacity="1"></stop><stop offset="116.66666666666666%" stop-color="#0149ff" stop-opacity="1"></stop></linearGradient></defs><defs><linearGradient id="grad1_1" x1="70%" y1="100%" x2="100%" y2="0%"><stop offset="-16.66666666666667%" stop-color="#0149ff" stop-opacity="1"></stop><stop offset="116.66666666666666%" stop-color="#000e37" stop-opacity="1"></stop></linearGradient></defs><defs><linearGradient id="grad2_0" x1="0%" y1="100%" x2="30%" y2="0%"><stop offset="-16.66666666666667%" stop-color="#0149ff" stop-opacity="1"></stop><stop offset="116.66666666666666%" stop-color="#0149ff" stop-opacity="1"></stop></linearGradient></defs><defs><linearGradient id="grad2_1" x1="0%" y1="100%" x2="30%" y2="0%"><stop offset="-16.66666666666667%" stop-color="#000e37" stop-opacity="1"></stop><stop offset="116.66666666666666%" stop-color="#0149ff" stop-opacity="1"></stop></linearGradient></defs><g transform="translate(1000, 300)"><path d="M-300 0C-274.2 -29.5 -248.4 -59 -238.4 -98.7C-228.3 -138.5 -234.1 -188.6 -212.1 -212.1C-190.2 -235.7 -140.6 -232.8 -100.6 -243C-60.7 -253.2 -30.3 -276.6 0 -300L0 0Z" fill="#002d96"></path><path d="M-150 0C-137.1 -14.7 -124.2 -29.5 -119.2 -49.4C-114.2 -69.3 -117 -94.3 -106.1 -106.1C-95.1 -117.8 -70.3 -116.4 -50.3 -121.5C-30.3 -126.6 -15.2 -138.3 0 -150L0 0Z" fill="#0149ff"></path></g><g transform="translate(0, 0)"><path d="M300 0C282.3 34 264.7 68 252.2 104.5C239.8 141 232.6 180 210.7 210.7C188.9 241.4 152.4 263.7 114.8 277.2C77.2 290.6 38.6 295.3 0 300L0 0Z" fill="#002d96"></path><path d="M150 0C141.2 17 132.3 34 126.1 52.2C119.9 70.5 116.3 90 105.4 105.4C94.4 120.7 76.2 131.8 57.4 138.6C38.6 145.3 19.3 147.7 0 150L0 0Z" fill="#0149ff"></path></g></svg>